<svg aria-hidden="true" style="position: absolute; width: 0; height: 0; overflow: hidden;" version="1.1" xmlns="http://www.w3.org/2000/svg" xmlns:xlink="http://www.w3.org/1999/xlink">
<defs>
<symbol id="icon-phone" viewBox="0 0 32 32">
<path d="M29.43 20.474c-1.959 0-3.882-0.299-5.705-0.886-0.893-0.297-1.991-0.025-2.536 0.521l-3.598 2.648c-4.172-2.171-6.743-4.676-8.939-8.713l2.636-3.416c0.685-0.667 0.931-1.641 0.636-2.554-0.605-1.786-0.912-3.66-0.912-5.571 0-1.38-1.152-2.503-2.567-2.503h-5.876c-1.416 0-2.568 1.123-2.568 2.503 0 15.819 13.202 28.689 29.43 28.689 1.416 0 2.568-1.123 2.568-2.503v-5.712c0-1.38-1.152-2.503-2.568-2.503z"></path>
</symbol>
<symbol id="icon-Location" viewBox="0 0 23 32">
<path d="M11.733 0c6.47 0 11.733 5.131 11.733 11.438 0 2.496-0.809 4.867-2.341 6.857l-8.669 11.382c-0.022 0.028-0.055 0.038-0.079 0.063-0.433 0.452-1.058 0.339-1.367-0.063-2.496-3.247-7.072-9.312-8.832-11.599 0 0-0.001-0.002-0.001-0.003l-0.011-0.014c-1.418-1.942-2.167-4.232-2.167-6.623 0-6.307 5.264-11.438 11.733-11.438zM11.733 17.609c3.483 0 6.33-2.775 6.33-6.171s-2.847-6.171-6.33-6.171c-3.483 0-6.33 2.775-6.33 6.171s2.847 6.171 6.33 6.171z"></path>
</symbol>
<symbol id="icon-Filled-Start" viewBox="0 0 34 32">
<path fill="#edd501" style="fill: var(--color1, #edd501)" d="M15.24 1.561c0.504-1.552 2.699-1.552 3.204 0l2.558 7.872c0.225 0.694 0.872 1.164 1.602 1.164h8.277c1.632 0 2.31 2.088 0.99 3.047l-6.696 4.865c-0.59 0.429-0.837 1.189-0.612 1.883l2.558 7.872c0.504 1.552-1.272 2.842-2.592 1.883l-6.696-4.865c-0.59-0.429-1.39-0.429-1.98 0l-6.696 4.865c-1.32 0.959-3.096-0.331-2.592-1.883l2.558-7.872c0.225-0.694-0.022-1.454-0.612-1.883l-6.696-4.865c-1.32-0.959-0.642-3.047 0.99-3.047h8.277c0.73 0 1.376-0.47 1.602-1.164l2.558-7.872z"></path>
</symbol>
<symbol id="icon-Empty-Star" viewBox="0 0 34 32">
<path fill="none" stroke="#edd501" stroke-width="1.6842" stroke-miterlimit="4" stroke-linecap="butt" stroke-linejoin="miter" style="stroke: var(--color1, #edd501)" d="M16.041 1.822c0.252-0.776 1.35-0.776 1.602 0l2.558 7.872c0.338 1.041 1.308 1.746 2.403 1.746h8.277c0.816 0 1.155 1.044 0.495 1.523l-6.696 4.865c-0.885 0.643-1.256 1.784-0.918 2.825l2.558 7.872c0.252 0.776-0.636 1.421-1.296 0.941l-6.696-4.865c-0.886-0.643-2.084-0.643-2.97 0l-6.696 4.865c-0.66 0.48-1.548-0.166-1.296-0.941l2.558-7.872c0.338-1.041-0.032-2.181-0.918-2.825l-6.696-4.865c-0.66-0.479-0.321-1.523 0.495-1.523h8.277c1.094 0 2.064-0.705 2.403-1.746l2.558-7.872z"></path>
</symbol>
<symbol id="icon-Chief-border" viewBox="0 0 32 32">
<path fill="#fff" stroke="#f3848c" stroke-width="1.3333" stroke-miterlimit="4" stroke-linecap="butt" stroke-linejoin="miter" style="fill: var(--color2, #fff); stroke: var(--color3, #f3848c)" d="M31.333 16c0 8.468-6.865 15.333-15.333 15.333s-15.333-6.865-15.333-15.333c0-8.468 6.865-15.333 15.333-15.333s15.333 6.865 15.333 15.333z"></path>
<path fill="#fff" style="fill: var(--color2, #fff)" d="M29.333 16c0 7.364-5.97 13.333-13.333 13.333s-13.333-5.97-13.333-13.333c0-7.364 5.97-13.333 13.333-13.333s13.333 5.97 13.333 13.333z"></path>
<path fill="none" stroke="#f3848c" stroke-width="0.6667" stroke-miterlimit="4" stroke-linecap="round" stroke-linejoin="miter" style="stroke: var(--color3, #f3848c)" d="M29 16c0 7.18-5.82 13-13 13s-13-5.82-13-13c0-7.18 5.82-13 13-13s13 5.82 13 13z"></path>
<path fill="#000" style="fill: var(--color4, #000)" d="M9.333 10.953c0 1.413 1.031 2.586 2.381 2.814v4.329c0 0.126 0.050 0.247 0.139 0.337s0.21 0.14 0.337 0.14h7.62c0.126 0 0.247-0.050 0.337-0.14s0.139-0.21 0.139-0.337v-4.329c1.349-0.228 2.38-1.401 2.38-2.814 0-1.576-1.281-2.857-2.857-2.857h-1.078c-0.603-0.862-1.602-1.429-2.732-1.429s-2.129 0.566-2.732 1.429h-1.078c-0.758 0.001-1.484 0.302-2.019 0.838s-0.837 1.262-0.838 2.019zM12.666 17.144h6.668v0.475h-6.668v-0.475zM12.191 9.048h0.616c-0.093 0.309-0.14 0.63-0.14 0.952 0 0.126 0.050 0.247 0.139 0.337s0.21 0.139 0.337 0.139c0.126 0 0.247-0.050 0.337-0.139s0.14-0.21 0.14-0.337c0-1.313 1.068-2.381 2.381-2.381s2.381 1.068 2.381 2.381c0 0.126 0.050 0.247 0.14 0.337s0.21 0.139 0.337 0.139 0.247-0.050 0.337-0.139c0.089-0.089 0.139-0.21 0.139-0.337 0-0.331-0.050-0.65-0.141-0.952h0.616c1.051 0 1.905 0.854 1.905 1.905-0.001 0.504-0.201 0.988-0.557 1.345s-0.84 0.558-1.344 0.56l-0.003-0c-0.063-0-0.125 0.012-0.183 0.036s-0.11 0.059-0.155 0.104c-0.044 0.044-0.080 0.097-0.104 0.155s-0.036 0.12-0.036 0.183l0.001 0.005v2.853h-6.668v-2.855l0-0.002c0-0.063-0.012-0.125-0.036-0.183s-0.059-0.111-0.103-0.155c-0.044-0.044-0.097-0.079-0.155-0.103s-0.12-0.036-0.183-0.036l-0.003 0c-0.504-0.001-0.988-0.202-1.344-0.559s-0.557-0.841-0.557-1.345c0-1.051 0.854-1.905 1.905-1.905zM21.237 20.477h-10.474c-0.126 0-0.247 0.050-0.337 0.139s-0.139 0.21-0.139 0.337c0 0.126 0.050 0.247 0.139 0.337s0.21 0.139 0.337 0.139h10.474c0.126 0 0.247-0.050 0.337-0.139s0.139-0.21 0.139-0.337c0-0.126-0.050-0.247-0.139-0.337s-0.21-0.139-0.337-0.139zM21.237 21.906h-10.474c-0.126 0-0.247 0.050-0.337 0.139s-0.139 0.21-0.139 0.337c0 0.126 0.050 0.247 0.139 0.337s0.21 0.139 0.337 0.139h10.474c0.126 0 0.247-0.050 0.337-0.139s0.139-0.21 0.139-0.337c0-0.126-0.050-0.247-0.139-0.337s-0.21-0.139-0.337-0.139zM18.856 23.347h-5.713c-0.126 0-0.247 0.050-0.337 0.139s-0.139 0.21-0.139 0.337c0 0.126 0.050 0.247 0.139 0.337s0.21 0.139 0.337 0.139h5.713c0.126 0 0.247-0.050 0.337-0.139s0.139-0.21 0.139-0.337c0-0.126-0.050-0.247-0.139-0.337s-0.211-0.139-0.337-0.139z"></path>
</symbol>
<symbol id="icon-Chief" viewBox="0 0 23 32">
<path d="M0 7.347c0 2.422 1.768 4.434 4.081 4.824v7.421c0 0.217 0.086 0.424 0.239 0.577s0.361 0.239 0.577 0.239h13.063c0.217 0 0.424-0.086 0.577-0.239s0.239-0.361 0.239-0.577v-7.421c2.312-0.391 4.080-2.402 4.080-4.824 0-2.701-2.197-4.898-4.898-4.898h-1.847c-1.034-1.478-2.746-2.449-4.683-2.449s-3.649 0.971-4.683 2.449h-1.848c-1.299 0.002-2.543 0.518-3.462 1.436s-1.435 2.163-1.436 3.462zM5.714 17.961h11.43v0.815h-11.43v-0.815zM4.898 4.082h1.056c-0.159 0.53-0.24 1.080-0.241 1.633 0 0.217 0.086 0.424 0.239 0.577s0.361 0.239 0.577 0.239c0.217 0 0.424-0.086 0.577-0.239s0.239-0.361 0.239-0.577c0-2.251 1.831-4.082 4.082-4.082s4.082 1.831 4.082 4.082c0 0.217 0.086 0.424 0.239 0.577s0.361 0.239 0.577 0.239c0.217 0 0.424-0.086 0.577-0.239s0.239-0.361 0.239-0.577c0-0.567-0.086-1.114-0.241-1.633h1.056c1.801 0 3.266 1.465 3.266 3.266-0.001 0.865-0.344 1.694-0.955 2.306s-1.439 0.957-2.304 0.959l-0.005-0.001c-0.107-0-0.214 0.021-0.313 0.062s-0.189 0.102-0.265 0.178c-0.076 0.076-0.137 0.166-0.178 0.265s-0.062 0.206-0.062 0.313l0.002 0.008v4.891h-11.43v-4.895l0.001-0.004c0-0.107-0.021-0.214-0.062-0.313s-0.101-0.19-0.177-0.265c-0.076-0.076-0.166-0.136-0.265-0.177s-0.206-0.062-0.313-0.062l-0.005 0.001c-0.865-0.002-1.693-0.347-2.304-0.959s-0.955-1.441-0.955-2.306c0-1.801 1.465-3.266 3.266-3.266zM20.406 23.675h-17.956c-0.217 0-0.424 0.086-0.577 0.239s-0.239 0.361-0.239 0.577c0 0.216 0.086 0.424 0.239 0.577s0.361 0.239 0.577 0.239h17.956c0.217 0 0.424-0.086 0.577-0.239s0.239-0.361 0.239-0.577c0-0.217-0.086-0.424-0.239-0.577s-0.361-0.239-0.577-0.239zM20.406 26.124h-17.956c-0.217 0-0.424 0.086-0.577 0.239s-0.239 0.361-0.239 0.577c0 0.216 0.086 0.424 0.239 0.577s0.361 0.239 0.577 0.239h17.956c0.217 0 0.424-0.086 0.577-0.239s0.239-0.361 0.239-0.577c0-0.217-0.086-0.424-0.239-0.577s-0.361-0.239-0.577-0.239zM16.325 28.595h-9.793c-0.216 0-0.424 0.086-0.577 0.239s-0.239 0.361-0.239 0.577c0 0.217 0.086 0.424 0.239 0.577s0.361 0.239 0.577 0.239h9.793c0.216 0 0.424-0.086 0.577-0.239s0.239-0.361 0.239-0.577c0-0.216-0.086-0.424-0.239-0.577s-0.361-0.239-0.577-0.239z"></path>
</symbol>
<symbol id="icon-twitter" viewBox="0 0 34 32">
<path d="M34.133 3.67c-1.269 0.622-2.622 1.035-4.032 1.235 1.451-0.968 2.558-2.49 3.078-4.324-1.353 0.901-2.846 1.538-4.437 1.893-1.284-1.529-3.115-2.475-5.111-2.475-3.874 0-6.993 3.515-6.993 7.824 0 0.62 0.047 1.216 0.162 1.784-5.818-0.317-10.965-3.434-14.423-8.182-0.604 1.171-0.958 2.511-0.958 3.954 0 2.709 1.248 5.111 3.108 6.501-1.124-0.024-2.227-0.389-3.162-0.963 0 0.024 0 0.055 0 0.086 0 3.801 2.426 6.959 5.606 7.686-0.57 0.174-1.19 0.258-1.835 0.258-0.448 0-0.9-0.029-1.325-0.134 0.907 3.098 3.479 5.375 6.539 5.449-2.381 2.082-5.404 3.336-8.676 3.336-0.574 0-1.124-0.029-1.675-0.107 3.1 2.235 6.773 3.51 10.735 3.51 12.877 0 19.917-11.924 19.917-22.259 0-0.346-0.011-0.68-0.026-1.011 1.389-1.102 2.556-2.478 3.507-4.061z"></path>
</symbol>
<symbol id="icon-Facebook" viewBox="0 0 16 32">
<path d="M14.512 0.007l-3.617-0.007c-4.064 0-6.69 3.091-6.69 7.875v3.631h-3.637c-0.314 0-0.569 0.292-0.569 0.653v5.261c0 0.361 0.255 0.652 0.569 0.652h3.637v13.275c0 0.36 0.254 0.652 0.569 0.652h4.745c0.314 0 0.569-0.292 0.569-0.652v-13.275h4.252c0.314 0 0.569-0.292 0.569-0.652l0.002-5.261c0-0.173-0.060-0.339-0.167-0.461s-0.252-0.191-0.402-0.191h-4.254v-3.078c0-1.479 0.307-2.23 1.987-2.23l2.437-0.001c0.314 0 0.568-0.292 0.568-0.652v-4.885c0-0.36-0.254-0.652-0.568-0.652z"></path>
</symbol>
<symbol id="icon-Instagram" viewBox="0 0 32 32">
<path d="M16.316 32c-0.106 0-0.212 0-0.319-0-2.508 0.006-4.826-0.058-7.080-0.195-2.066-0.126-3.953-0.84-5.455-2.065-1.45-1.182-2.44-2.781-2.942-4.75-0.438-1.715-0.461-3.398-0.483-5.026-0.016-1.168-0.033-2.553-0.036-3.96 0.003-1.414 0.020-2.798 0.036-3.966 0.022-1.628 0.045-3.311 0.483-5.026 0.503-1.97 1.493-3.568 2.942-4.75 1.503-1.225 3.389-1.939 5.456-2.065 2.254-0.137 4.572-0.201 7.086-0.195 2.509-0.005 4.826 0.058 7.080 0.195 2.066 0.126 3.953 0.84 5.455 2.065 1.45 1.182 2.44 2.781 2.943 4.75 0.437 1.715 0.461 3.398 0.483 5.026 0.016 1.168 0.033 2.553 0.036 3.96v0.006c-0.003 1.408-0.020 2.792-0.036 3.96-0.022 1.628-0.045 3.311-0.483 5.026-0.503 1.97-1.493 3.568-2.943 4.75-1.502 1.225-3.389 1.939-5.455 2.065-2.159 0.131-4.376 0.195-6.768 0.195zM15.997 29.5c2.468 0.006 4.733-0.056 6.934-0.19 1.563-0.095 2.917-0.602 4.027-1.507 1.026-0.837 1.732-1.991 2.1-3.431 0.364-1.428 0.385-2.96 0.406-4.442 0.016-1.16 0.032-2.535 0.036-3.929-0.004-1.394-0.020-2.769-0.036-3.929-0.020-1.482-0.041-3.015-0.406-4.443-0.367-1.44-1.074-2.594-2.1-3.431-1.11-0.905-2.465-1.412-4.027-1.507-2.201-0.134-4.467-0.196-6.928-0.19-2.467-0.006-4.733 0.056-6.934 0.19-1.563 0.095-2.917 0.602-4.027 1.507-1.026 0.837-1.732 1.991-2.1 3.431-0.364 1.428-0.385 2.96-0.406 4.443-0.016 1.161-0.032 2.537-0.036 3.932 0.003 1.389 0.020 2.765 0.036 3.926 0.020 1.482 0.041 3.015 0.406 4.442 0.367 1.44 1.074 2.594 2.1 3.431 1.11 0.905 2.465 1.412 4.027 1.507 2.201 0.134 4.467 0.197 6.928 0.191zM15.937 23.812c-4.308 0-7.813-3.505-7.813-7.812s3.505-7.813 7.813-7.813c4.308 0 7.813 3.505 7.813 7.813s-3.505 7.812-7.813 7.812zM15.937 10.687c-2.929 0-5.313 2.383-5.313 5.313s2.383 5.312 5.313 5.312c2.93 0 5.313-2.383 5.313-5.312s-2.383-5.313-5.313-5.313zM24.625 5.687c-1.035 0-1.875 0.839-1.875 1.875s0.84 1.875 1.875 1.875c1.036 0 1.875-0.839 1.875-1.875s-0.839-1.875-1.875-1.875z"></path>
</symbol>
<symbol id="icon-menu" viewBox="0 0 60 32">
<path d="M2 0h56c1.105 0 2 0.895 2 2s-0.895 2-2 2h-56c-1.105 0-2-0.895-2-2s0.895-2 2-2z"></path>
<path d="M2 14h56c1.105 0 2 0.895 2 2s-0.895 2-2 2h-56c-1.105 0-2-0.895-2-2s0.895-2 2-2z"></path>
<path d="M2 28h56c1.105 0 2 0.895 2 2s-0.895 2-2 2h-56c-1.105 0-2-0.895-2-2s0.895-2 2-2z"></path>
</symbol>
<symbol id="icon-Close" viewBox="0 0 32 32">
<path d="M28.614 1.13l-12.614 12.614-12.614-12.614c-0.303-0.278-0.702-0.427-1.113-0.418s-0.803 0.176-1.094 0.467c-0.291 0.291-0.458 0.683-0.467 1.094s0.141 0.81 0.418 1.113l12.608 12.614-12.611 12.611c-0.154 0.147-0.277 0.323-0.362 0.518s-0.13 0.405-0.133 0.618 0.037 0.424 0.117 0.621c0.080 0.197 0.199 0.376 0.349 0.527s0.329 0.27 0.526 0.35 0.408 0.121 0.621 0.118c0.213-0.002 0.423-0.047 0.618-0.132s0.372-0.208 0.519-0.361l12.618-12.611 12.614 12.614c0.303 0.278 0.702 0.428 1.113 0.418s0.803-0.176 1.094-0.467c0.291-0.291 0.458-0.683 0.467-1.094s-0.141-0.81-0.418-1.113l-12.614-12.614 12.614-12.618c0.154-0.147 0.277-0.323 0.362-0.518s0.13-0.405 0.133-0.618c0.003-0.213-0.037-0.424-0.117-0.621s-0.199-0.376-0.349-0.527c-0.15-0.151-0.329-0.27-0.526-0.35s-0.408-0.121-0.621-0.118-0.423 0.047-0.618 0.132c-0.195 0.085-0.372 0.208-0.519 0.362v0.003z"></path>
</symbol>
</defs>
</svg>
